<svg xmlns:xlink="http://www.w3.org/1999/xlink" xmlns="http://www.w3.org/2000/svg" width="11.191" height="9.695" viewBox="0 0 11.191 9.695"><defs><style>.a{fill:#fff;}</style></defs><path class="a" d="M1727.359,622.451c-1.651,0-2.562.923-3.121,2.727a2.711,2.711,0,0,1,.852-.242c.559,0,.746.208.666.854a3.987,3.987,0,0,1-.666,1.809c-.48.727-.9.933-1.136.933-.292,0-.515-.421-.755-1.551-.08-.323-.266-1.05-.48-2.422-.186-1.265-.806-1.945-1.684-1.864-.373.027-.818.373-1.564,1.019-.533.484-1.038.834-1.6,1.319l.533.683a2.812,2.812,0,0,1,.879-.484c.373,0,.719.592,1.065,1.8.293,1.1.612,2.206.906,3.309.452,1.211,1.012,1.8,1.651,1.8,1.065,0,2.343-.968,3.861-2.959,1.491-1.884,2.24-3.444,2.293-4.547C1729.114,623.187,1728.53,622.477,1727.359,622.451Z" transform="translate(-1717.873 -622.451)"/></svg>