<svg xmlns:xlink="http://www.w3.org/1999/xlink" xmlns="http://www.w3.org/2000/svg" width="11.467" height="8.079" viewBox="0 0 11.467 8.079"><defs><style>.a{fill:#fff;}</style></defs><path class="a" d="M1179.228,627.641a1.441,1.441,0,0,0-1.014-1.02,41.739,41.739,0,0,0-8.96,0,1.441,1.441,0,0,0-1.014,1.02,16.216,16.216,0,0,0,0,5.556,1.44,1.44,0,0,0,1.014,1.02,41.728,41.728,0,0,0,8.96,0,1.441,1.441,0,0,0,1.014-1.02,16.224,16.224,0,0,0,0-5.556Z" transform="translate(-1168 -626.379)"/><path d="M1238,665.62v-3.41l3,1.705Z" transform="translate(-1233.439 -659.875)"/></svg>