<svg xmlns:xlink="http://www.w3.org/1999/xlink" xmlns="http://www.w3.org/2000/svg" width="23.656" height="23.656" viewBox="0 0 23.656 23.656">
    <path id="pinterest" d="M11.828,0a11.828,11.828,0,0,0-4.31,22.842,11.308,11.308,0,0,1,.041-3.392c.215-.924,1.387-5.88,1.387-5.88a4.272,4.272,0,0,1-.354-1.756c0-1.644.953-2.872,2.14-2.872a1.486,1.486,0,0,1,1.5,1.666,23.782,23.782,0,0,1-.98,3.938A1.718,1.718,0,0,0,13,16.684c2.1,0,3.718-2.217,3.718-5.416a4.669,4.669,0,0,0-4.94-4.812,5.119,5.119,0,0,0-5.34,5.132,4.6,4.6,0,0,0,.88,2.7.356.356,0,0,1,.082.34l-.328,1.341c-.052.217-.172.263-.4.159-1.478-.688-2.4-2.848-2.4-4.582,0-3.731,2.711-7.158,7.816-7.158,4.1,0,7.292,2.925,7.292,6.832,0,4.077-2.57,7.357-6.138,7.357a3.163,3.163,0,0,1-2.711-1.358L9.8,20.028a13.161,13.161,0,0,1-1.471,3.1A11.83,11.83,0,1,0,11.828,0Z" transform="translate(0)" fill-rule="evenodd"></path>
  </svg>