<svg xmlns:xlink="http://www.w3.org/1999/xlink" xmlns="http://www.w3.org/2000/svg" width="13.18" height="11.84" viewBox="0 0 13.18 11.84"><path d="M14.31,10.308a3.141,3.141,0,0,1,3.137,3.137c0,.059,0,.123-.008.208-.155,2.819-3.44,5.217-5.85,6.875C9.179,18.87,5.9,16.471,5.74,13.647c0-.079-.007-.143-.007-.2a3.137,3.137,0,0,1,5.343-2.23l.515.51.515-.509a3.117,3.117,0,0,1,2.205-.907m0-.732a3.855,3.855,0,0,0-2.72,1.119A3.869,3.869,0,0,0,5,13.445c0,.083,0,.166.009.248.181,3.29,3.927,5.906,6.581,7.723,2.655-1.817,6.4-4.433,6.581-7.723.005-.082.009-.164.009-.248A3.869,3.869,0,0,0,14.31,9.576Z" transform="translate(-5 -9.576)" fill="#333333"/></svg>