<svg xmlns:xlink="http://www.w3.org/1999/xlink" xmlns="http://www.w3.org/2000/svg" id="Capa_1" data-name="Capa 1" viewBox="0 0 40 25.54" width="40"  height="25.54" ><defs><style>.cls-1{fill:#fff;}</style></defs><path d="M20.33,4.08a10.42,10.42,0,0,1,8.12-2.32,10.24,10.24,0,0,1,6.48,3.42,10.53,10.53,0,0,1,.18,13.87A10.26,10.26,0,0,1,28,22.73a10.45,10.45,0,0,1-7.66-2.37,10.42,10.42,0,0,1-8.12,2.32A10.19,10.19,0,0,1,5.76,19.3,10.55,10.55,0,0,1,15.35,1.81,10.42,10.42,0,0,1,20.33,4.08Zm0,15.27a2.38,2.38,0,0,1,.2-.25,9.75,9.75,0,0,0,2.3-3.66c0-.07.09-.17.15-.17.23,0,.46,0,.72,0a10.6,10.6,0,0,1-2.77,4.53,9.77,9.77,0,1,0,0-15.14,10.51,10.51,0,0,1,2.77,4.53h-.57A.26.26,0,0,1,22.8,9a9.62,9.62,0,0,0-2.33-3.68l-.17-.16c-.26.29-.52.56-.76.84a9.59,9.59,0,0,0-1.72,3c0,.07-.07.16-.11.17H17A10.69,10.69,0,0,1,19.7,4.65a9.75,9.75,0,0,0-12.42,15,9.63,9.63,0,0,0,12.41.09A10.53,10.53,0,0,1,17,15.29l.06,0h.56c.15,0,.2.05.25.18a9.09,9.09,0,0,0,1.45,2.69C19.59,18.54,19.94,18.91,20.32,19.35Z"/><path class="cls-1" d="M20.32,19.35c-.38-.44-.73-.81-1-1.22a9.09,9.09,0,0,1-1.45-2.69c0-.13-.1-.19-.25-.18H17l-.06,0a10.53,10.53,0,0,0,2.73,4.49,9.63,9.63,0,0,1-12.41-.09,9.75,9.75,0,0,1,12.42-15A10.69,10.69,0,0,0,17,9.17h.76s.09-.1.11-.17a9.59,9.59,0,0,1,1.72-3c.24-.28.5-.55.76-.84l.17.16A9.62,9.62,0,0,1,22.8,9a.26.26,0,0,0,.32.21h.57a10.51,10.51,0,0,0-2.77-4.53,9.76,9.76,0,1,1,0,15.14,10.6,10.6,0,0,0,2.77-4.53c-.26,0-.49,0-.72,0-.06,0-.12.1-.15.17a9.75,9.75,0,0,1-2.3,3.66A2.38,2.38,0,0,0,20.32,19.35Zm-10.25-9.2H8.63a.24.24,0,0,0-.25.17l-1,2.19a2,2,0,0,1-.1.21h0l-.18-2.55H5.67c-.14,0-.19,0-.22.19-.2,1.1-.42,2.2-.63,3.3-.06.29-.11.57-.17.87h1l.57-3h0l.25,3c.27,0,.51,0,.76,0a.23.23,0,0,0,.25-.17c.37-.85.75-1.69,1.13-2.53,0-.06.06-.12.08-.18l0,0-.54,2.85c.29,0,.56,0,.84,0s.19,0,.22-.19c.15-.84.31-1.68.47-2.52C9.86,11.27,10,10.72,10.07,10.15ZM36,9.92c-.27,0-.52,0-.76,0s-.3.07-.33.28c-.05.36-.13.71-.2,1.07a2.57,2.57,0,0,0-.52-.34,1.52,1.52,0,0,0-1.72.58A2.8,2.8,0,0,0,32,12.78a1.7,1.7,0,0,0,.4,1.38.9.9,0,0,0,1,.31c.19-.06.37-.14.55-.21.07.09.14.23.22.24.33,0,.65,0,1,0ZM10.19,11.77h.15c.41,0,.81-.07,1.22-.09a.7.7,0,0,1,.29,0c.16,0,.19.19.18.34s-.15.11-.24.11l-.59,0a1.52,1.52,0,0,0-1.44,1.06,1,1,0,0,0,1,1.28,8,8,0,0,0,.83-.14c.05,0,.13.12.21.12a5.45,5.45,0,0,0,.7,0c.05,0,.13-.06.14-.1.14-.75.31-1.49.41-2.25a1,1,0,0,0-1-1.25,11.79,11.79,0,0,0-1.57.07.14.14,0,0,0-.12.1C10.27,11.29,10.24,11.52,10.19,11.77Zm16.66,0,1.35-.08a.92.92,0,0,1,.29,0c.18.06.21.2.19.36s-.15.1-.24.1-.39,0-.59,0a1.52,1.52,0,0,0-1.43,1.06,1,1,0,0,0,1,1.28c.28,0,.55-.09.84-.14,0,.12.17.14.32.13h.54a.15.15,0,0,0,.19-.15c0-.24.09-.48.14-.72.09-.52.21-1,.26-1.54a1,1,0,0,0-.9-1.18,4.58,4.58,0,0,0-1.73.06.17.17,0,0,0-.1.1C26.93,11.3,26.89,11.52,26.85,11.75Zm-1,1.67-.35.07a1,1,0,0,1-1.15-.58,1.47,1.47,0,0,1,.37-1.56,1.23,1.23,0,0,1,1.44-.25.16.16,0,0,0,.15,0l.59-.56-.15-.17a1.94,1.94,0,0,0-2.07-.23,2.72,2.72,0,0,0-1.44,2.92,1.66,1.66,0,0,0,1,1.32,2.31,2.31,0,0,0,1.84-.08l0,0c-.08-.25-.16-.5-.25-.75C25.92,13.47,25.9,13.45,25.88,13.42Zm-5.07-.52a2.3,2.3,0,0,0,.06-1.13,1,1,0,0,0-.7-.78,1.77,1.77,0,0,0-2.39,1.16,2.73,2.73,0,0,0-.1.41,1.56,1.56,0,0,0,1.08,1.89,3.54,3.54,0,0,0,1.65,0,.2.2,0,0,0,.15-.13c.06-.2.09-.42.14-.65l-.27,0a10.23,10.23,0,0,1-1.24,0c-.41,0-.59-.33-.48-.76ZM13,14.39a4,4,0,0,0,1.89,0,1.1,1.1,0,0,0,.86-1.21.7.7,0,0,0-.35-.6l-.71-.41a.3.3,0,0,1-.2-.33c0-.16.16-.19.3-.2h.9l.21-.68a2.8,2.8,0,0,0-1.67,0,1.06,1.06,0,0,0-.83,1.26.66.66,0,0,0,.41.57c.25.12.5.26.74.4a.28.28,0,0,1,.07.48.51.51,0,0,1-.25.06l-1.24,0Zm4.5-.76h-.12c-.4,0-.48-.1-.41-.5l.21-1.08c.06-.33.06-.33.4-.34.06,0,.16,0,.17-.08.07-.22.11-.45.17-.7h-.52l.19-1h-.78c-.15,0-.21,0-.24.19-.2,1.05-.42,2.11-.63,3.16a3.57,3.57,0,0,0,0,.46.7.7,0,0,0,.61.71,3.23,3.23,0,0,0,.81-.08.2.2,0,0,0,.12-.13C17.43,14.07,17.44,13.86,17.46,13.63Zm12.2.88h.8c.14,0,.2,0,.23-.17.07-.48.15-.95.26-1.42a3.38,3.38,0,0,1,.26-.69.7.7,0,0,1,.61-.4c.05,0,.14,0,.15-.09.09-.27.16-.54.24-.82-.3-.05-.5,0-.93.29l-.1-.32H30.5c-.13,0-.18,0-.2.16-.07.39-.15.79-.22,1.18C29.94,13,29.8,13.73,29.66,14.51Zm-8.8,0h.84c.12,0,.16,0,.18-.15s.07-.46.12-.69c.11-.45.21-.9.36-1.33a.68.68,0,0,1,.66-.47c.05,0,.13,0,.14-.08.08-.27.15-.56.24-.88a4.62,4.62,0,0,0-.51.1c-.15.06-.29.15-.41.21-.06-.09-.11-.26-.17-.27a5.08,5.08,0,0,0-.78,0Z"/><path d="M10.07,10.15c-.11.57-.21,1.12-.31,1.66-.16.84-.32,1.68-.47,2.52,0,.15-.08.19-.22.19s-.55,0-.84,0l.54-2.85,0,0c0,.06-.06.12-.08.18-.38.84-.76,1.68-1.13,2.53a.23.23,0,0,1-.25.17c-.25,0-.49,0-.76,0l-.25-3h0l-.57,3h-1c.06-.3.11-.58.17-.87.21-1.1.43-2.2.63-3.3,0-.14.08-.19.22-.19h1.4l.18,2.55h0a2,2,0,0,0,.1-.21l1-2.19a.24.24,0,0,1,.25-.17Z"/><path d="M36,9.92l-.85,4.59c-.34,0-.66,0-1,0-.08,0-.15-.15-.22-.24-.18.07-.36.15-.55.21a.9.9,0,0,1-1-.31,1.7,1.7,0,0,1-.4-1.38,2.8,2.8,0,0,1,.47-1.27,1.52,1.52,0,0,1,1.72-.58,2.57,2.57,0,0,1,.52.34c.07-.36.15-.71.2-1.07,0-.21.1-.31.33-.28S35.7,9.92,36,9.92Zm-1.6,2.45v-.08a.56.56,0,0,0-.29-.53.57.57,0,0,0-.61.15,1.35,1.35,0,0,0-.46.93.65.65,0,0,0,.39.65.61.61,0,0,0,.68-.26A1.3,1.3,0,0,0,34.37,12.37Z"/><path d="M10.19,11.77c.05-.25.08-.48.14-.69a.14.14,0,0,1,.12-.1A11.79,11.79,0,0,1,12,10.91a1,1,0,0,1,1,1.25c-.1.76-.27,1.5-.41,2.25,0,0-.09.09-.14.1a5.45,5.45,0,0,1-.7,0c-.08,0-.16-.09-.21-.12a8,8,0,0,1-.83.14,1,1,0,0,1-1-1.28,1.52,1.52,0,0,1,1.44-1.06l.59,0c.09,0,.23.07.24-.11s0-.29-.18-.34a.7.7,0,0,0-.29,0c-.41,0-.81.06-1.22.09Zm1.64,1.14a.86.86,0,0,0-1.05.32.3.3,0,0,0,.23.49.53.53,0,0,0,.25,0C11.64,13.65,11.78,13.45,11.83,12.91Z"/><path d="M26.85,11.75c0-.23.08-.45.13-.67a.17.17,0,0,1,.1-.1,4.58,4.58,0,0,1,1.73-.06,1,1,0,0,1,.9,1.18c-.05.51-.17,1-.26,1.54-.05.24-.1.48-.14.72a.15.15,0,0,1-.19.15h-.54c-.15,0-.28,0-.32-.13-.29,0-.56.12-.84.14a1,1,0,0,1-1-1.28,1.52,1.52,0,0,1,1.43-1.06c.2,0,.39,0,.59,0s.23.07.24-.1,0-.3-.19-.36a.92.92,0,0,0-.29,0Zm1.64,1.12a4.68,4.68,0,0,0-.53,0,.71.71,0,0,0-.53.36.31.31,0,0,0,.22.49.62.62,0,0,0,.27,0C28.3,13.65,28.45,13.43,28.49,12.87Z"/><path d="M25.88,13.42s0,.05,0,.08c.09.25.17.5.25.75l0,0a2.31,2.31,0,0,1-1.84.08,1.66,1.66,0,0,1-1-1.32,2.72,2.72,0,0,1,1.44-2.92,1.94,1.94,0,0,1,2.07.23l.15.17-.59.56a.16.16,0,0,1-.15,0,1.23,1.23,0,0,0-1.44.25,1.47,1.47,0,0,0-.37,1.56,1,1,0,0,0,1.15.58Z"/><path d="M20.81,12.9h-2.1c-.11.43.07.74.48.76a10.23,10.23,0,0,0,1.24,0l.27,0c-.05.23-.08.45-.14.65a.2.2,0,0,1-.15.13,3.54,3.54,0,0,1-1.65,0,1.56,1.56,0,0,1-1.08-1.89,2.73,2.73,0,0,1,.1-.41A1.77,1.77,0,0,1,20.17,11a1,1,0,0,1,.7.78A2.3,2.3,0,0,1,20.81,12.9Zm-2-.66h1.12s.1-.08.11-.13a.44.44,0,0,0-.49-.52A.75.75,0,0,0,18.76,12.24Z"/><path d="M13,14.39l.13-.69,1.24,0a.51.51,0,0,0,.25-.06.28.28,0,0,0-.07-.48c-.24-.14-.49-.28-.74-.4a.66.66,0,0,1-.41-.57A1.06,1.06,0,0,1,14.19,11a2.8,2.8,0,0,1,1.67,0l-.21.68h-.9c-.14,0-.27,0-.3.2a.3.3,0,0,0,.2.33l.71.41a.7.7,0,0,1,.35.6,1.1,1.1,0,0,1-.86,1.21A4,4,0,0,1,13,14.39Z"/><path d="M17.46,13.63c0,.23,0,.44-.06.65a.2.2,0,0,1-.12.13,3.23,3.23,0,0,1-.81.08.7.7,0,0,1-.61-.71,3.57,3.57,0,0,1,0-.46c.21-1.05.43-2.11.63-3.16,0-.16.09-.2.24-.19h.78l-.19,1h.52c-.06.25-.1.48-.17.7,0,0-.11.07-.17.08-.34,0-.34,0-.4.34l-.21,1.08c-.07.4,0,.5.41.5Z"/><path d="M29.66,14.51c.14-.78.28-1.53.42-2.28.07-.39.15-.79.22-1.18,0-.13.07-.16.2-.16h.68l.1.32c.43-.27.63-.34.93-.29-.08.28-.15.55-.24.82,0,0-.1.09-.15.09a.7.7,0,0,0-.61.4,3.38,3.38,0,0,0-.26.69c-.11.47-.19.94-.26,1.42,0,.14-.09.18-.23.17Z"/><path d="M20.86,14.51l.67-3.58a5.08,5.08,0,0,1,.78,0c.06,0,.11.18.17.27.12-.06.26-.15.41-.21a4.62,4.62,0,0,1,.51-.1c-.09.32-.16.61-.24.88,0,0-.09.08-.14.08a.68.68,0,0,0-.66.47c-.15.43-.25.88-.36,1.33q-.08.35-.12.69c0,.11-.06.16-.18.15Z"/><path class="cls-1" d="M34.37,12.37a1.3,1.3,0,0,1-.29.86.61.61,0,0,1-.68.26.65.65,0,0,1-.39-.65,1.35,1.35,0,0,1,.46-.93.57.57,0,0,1,.61-.15.56.56,0,0,1,.29.53Z"/><path class="cls-1" d="M11.83,12.91c-.05.54-.19.74-.57.81a.53.53,0,0,1-.25,0,.3.3,0,0,1-.23-.49A.86.86,0,0,1,11.83,12.91Z"/><path class="cls-1" d="M28.49,12.87c0,.56-.19.78-.57.85a.62.62,0,0,1-.27,0,.31.31,0,0,1-.22-.49.71.71,0,0,1,.53-.36A4.68,4.68,0,0,1,28.49,12.87Z"/><path class="cls-1" d="M18.76,12.24a.75.75,0,0,1,.74-.65.44.44,0,0,1,.49.52c0,.05-.07.13-.11.13Z"/></svg>