<?xml version="1.0" encoding="UTF-8" standalone="no"? width="20"  height="20" >
<svg
   xmlns:dc="http://purl.org/dc/elements/1.1/"
   xmlns:cc="http://creativecommons.org/ns#"
   xmlns:rdf="http://www.w3.org/1999/02/22-rdf-syntax-ns#"
   xmlns:svg="http://www.w3.org/2000/svg"
   xmlns="http://www.w3.org/2000/svg"
   xmlns:sodipodi="http://sodipodi.sourceforge.net/DTD/sodipodi-0.dtd"
   xmlns:inkscape="http://www.inkscape.org/namespaces/inkscape"
   height="558pt"
   viewBox="-17 -29 558.6707 558"
   width="558pt"
   version="1.1"
   id="svg22"
   sodipodi:docname="icon.svg"
   inkscape:version="0.92.4 (5da689c313, 2019-01-14)">
  <metadata
     id="metadata28">
    <rdf:RDF>
      <cc:Work
         rdf:about="">
        <dc:format>image/svg+xml</dc:format>
        <dc:type
           rdf:resource="http://purl.org/dc/dcmitype/StillImage" />
        <dc:title></dc:title>
      </cc:Work>
    </rdf:RDF>
  </metadata>
  <defs
     id="defs26" />
  <sodipodi:namedview
     pagecolor="#ffffff"
     bordercolor="#666666"
     borderopacity="1"
     objecttolerance="10"
     gridtolerance="10"
     guidetolerance="10"
     inkscape:pageopacity="0"
     inkscape:pageshadow="2"
     inkscape:window-width="1920"
     inkscape:window-height="1017"
     id="namedview24"
     showgrid="false"
     inkscape:zoom="0.56989247"
     inkscape:cx="73.516894"
     inkscape:cy="405.95306"
     inkscape:window-x="-8"
     inkscape:window-y="-8"
     inkscape:window-maximized="1"
     inkscape:current-layer="svg22" />
  <path
     style="stroke-width:1.33173263"
     d="M 371.39258 38.34375 C 365.06685 38.34375 359.28764 41.933906 356.47852 47.609375 L 257.7168 247.73242 L 36.876953 279.80859 C 30.608446 280.72416 25.407154 285.1101 23.451172 291.12891 C 21.500391 297.14251 23.129145 303.74815 27.660156 308.16992 L 187.4668 463.94141 L 149.73633 683.88477 C 148.6699 690.12206 151.22947 696.427 156.35352 700.14648 C 161.47236 703.86077 168.26194 704.35583 173.85938 701.40625 L 371.39258 597.56836 L 568.91992 701.41602 C 574.51736 704.36039 581.30693 703.87117 586.42578 700.14648 C 591.54463 696.4322 594.10874 690.12726 593.03711 683.88477 L 555.3125 463.94727 L 715.11914 308.16992 C 719.65015 303.75336 721.27891 297.14771 719.32812 291.12891 C 717.36694 285.1153 712.16565 280.72352 705.90234 279.81836 L 485.0625 247.73242 L 386.29102 47.609375 C 383.4923 41.933906 377.71311 38.34375 371.39258 38.34375 z M 371.39258 92.529297 L 459.11523 270.2793 C 461.5342 275.19006 466.21549 278.59144 471.63086 279.37695 L 667.79102 307.87891 L 525.84766 446.23438 C 521.92529 450.0579 520.13978 455.55661 521.06055 460.95117 L 554.57227 656.31445 L 379.12305 564.08203 C 377.14391 563.03826 375.00654 562.42703 372.8418 562.23633 L 371.39258 92.529297 z "
     transform="matrix(0.75090148,0,0,0.75090148,-17,-29.33535)"
     id="path20" />
</svg>
