<svg xmlns:xlink="http://www.w3.org/1999/xlink" xmlns="http://www.w3.org/2000/svg" width="23.724" height="23.724" viewBox="0 0 23.724 23.724">
    <path id="facebook" d="M22.414,0H1.31A1.309,1.309,0,0,0,0,1.31V22.415a1.309,1.309,0,0,0,1.31,1.309H12.673V14.537H9.581v-3.58h3.092V8.316c0-3.064,1.871-4.733,4.605-4.733a25.362,25.362,0,0,1,2.763.141v3.2h-1.9c-1.487,0-1.774.707-1.774,1.743v2.286h3.546l-.462,3.58H16.371v9.186h6.046a1.309,1.309,0,0,0,1.308-1.31V1.31A1.309,1.309,0,0,0,22.414,0Z" transform="translate(0)"></path>
  </svg>