<svg xmlns:xlink="http://www.w3.org/1999/xlink" xmlns="http://www.w3.org/2000/svg" width="17.25" height="19.685" viewBox="0 0 17.25 19.685"><defs><style>.a{fill:#2e2e2e;}</style></defs><path class="a" d="M45.69,26.631l-8.2-2.857a.425.425,0,0,0-.282,0l-8.2,2.857a.428.428,0,0,0-.287.4V40.149a.428.428,0,0,0,.287.4l8.2,2.857h0a.412.412,0,0,0,.28,0l8.2-2.857a.428.428,0,0,0,.287-.4V27.035A.428.428,0,0,0,45.69,26.631Zm-8.338-2,6.9,2.4-1.209.421-6.9-2.4Zm-2.51.874,6.9,2.4-1.674.583-6.9-2.4ZM40.5,29.25l2.118-.738v3.159l-.873-.421a.428.428,0,0,0-.512.109l-.734.863Zm-8.626-2.708,6.9,2.4-1.415.493-6.9-2.4Zm-2.287,1.1L36.924,30.2V42.4l-7.342-2.559ZM37.78,42.4V30.2l1.858-.648v3.839a.428.428,0,0,0,.755.278l1.272-1.5,1.189.572a.428.428,0,0,0,.614-.385v-4.14l1.653-.576V39.845Z" transform="translate(-28.727 -23.75)"/></svg>