<svg xmlns:xlink="http://www.w3.org/1999/xlink" xmlns="http://www.w3.org/2000/svg" id="Capa_1" data-name="Capa 1" viewBox="0 0 44.31 31.08" width="44.31"  height="31.08" ><defs><style>.cls-1{fill:#fff;}</style></defs><path class="cls-1" d="M10.43,8.19A7.9,7.9,0,0,1,18.1,14c0,.21,0,.29-.19.38L4.18,20.25c-.26.11-.36.07-.5-.16A7.89,7.89,0,0,1,8.93,8.34,6,6,0,0,1,10.43,8.19ZM5.84,16c0,.11,0,.22,0,.34s0,.23.23.15l7.73-3.3c.18-.08.21-.13.06-.28a4.64,4.64,0,0,0-8,3.09Z"/><path class="cls-1" d="M19.62,12.42c0-2.5,0-5,0-7.51,0-.22.05-.29.28-.29.81,0,1.61,0,2.42,0,.25,0,.33,0,.33.32,0,4.87,0,9.74,0,14.61a.39.39,0,0,0,.29.43l2.18.89c.15.06.17.12.11.26-.38.89-.75,1.77-1.11,2.66-.06.15-.12.15-.25.1-.84-.35-1.7-.68-2.53-1.07a2.84,2.84,0,0,1-1.65-2.32,5.81,5.81,0,0,1-.06-.93Q19.63,16,19.62,12.42Z"/><path class="cls-1" d="M28.37,10.19a.16.16,0,0,1,.14.09l1.95,2.19c.12.14,0,.19-.05.27a4.47,4.47,0,0,0-1.34,2.55,4.52,4.52,0,0,0,1.33,4.09c.14.15.13.21,0,.35-.62.69-1.24,1.38-1.84,2.08-.13.15-.21.14-.34,0a7.91,7.91,0,0,1-.09-11.41Z"/><path class="cls-1" d="M33.35,8.18a8,8,0,0,1,8,6.05c.06.22,0,.28-.21.32-.88.17-1.76.35-2.63.54-.22.05-.3,0-.35-.22a4.64,4.64,0,0,0-4.75-3.44,4.11,4.11,0,0,0-1,.17c-.15.05-.23,0-.28-.13-.29-.89-.59-1.79-.9-2.68-.06-.18,0-.23.15-.28A8.17,8.17,0,0,1,33.35,8.18Z"/><path class="cls-1" d="M33.64,24a7.76,7.76,0,0,1-2.3-.33c-.17-.05-.2-.1-.14-.27.3-.89.6-1.78.89-2.68,0-.16.12-.18.28-.14a4.62,4.62,0,0,0,5.75-3.29c.06-.19.12-.24.32-.19q1.34.28,2.67.54c.2,0,.26.1.2.32a7.87,7.87,0,0,1-6.41,5.94A6.69,6.69,0,0,1,33.64,24Z"/><path class="cls-1" d="M10.47,24a8,8,0,0,1-4-1.08c-.17-.1-.2-.18-.08-.35.5-.78,1-1.56,1.47-2.35.1-.17.17-.15.32-.07a4.56,4.56,0,0,0,5.33-.56c.15-.13.22-.15.37,0q1,1,1.95,2c.11.11.12.17,0,.28a7.84,7.84,0,0,1-4.44,2C11.1,23.94,10.78,24,10.47,24Z"/></svg>