<svg xmlns:xlink="http://www.w3.org/1999/xlink" xmlns="http://www.w3.org/2000/svg" width="13.566" height="13.52" viewBox="0 0 13.566 13.52"><defs><style>.a{stroke:#000;stroke-width:0.5px;}</style></defs><path class="a" d="M18639.375,6596.08l-5.658-5.656-5.658,5.656a.5.5,0,0,1-.707,0,.506.506,0,0,1,0-.707l5.658-5.656-5.658-5.656a.506.506,0,0,1,0-.707.5.5,0,0,1,.707,0l5.658,5.656,5.658-5.656a.5.5,0,0,1,.705.707l-5.656,5.656,5.656,5.656a.5.5,0,1,1-.705.707Z" transform="translate(-18626.912 -6582.958)"/></svg>