<svg xmlns:xlink="http://www.w3.org/1999/xlink" height="25" xmlns="http://www.w3.org/2000/svg" width="39.374" viewBox="0 0 39.374 25"><path d="M34.053 11a4.5 4.5 0 1 0-5.157 0 7.789 7.789 0 0 0-2.657 1.558 10.078 10.078 0 0 0-3.646-1.987 5.695 5.695 0 1 0-5.89 0 10.162 10.162 0 0 0-3.607 1.963 7.852 7.852 0 0 0-2.625-1.527 4.5 4.5 0 1 0-5.157 0A7.89 7.89 0 0 0 0 18.464v.514a.034.034 0 0 0 .031.031h9.528a10.479 10.479 0 0 0-.086 1.317v.53a4.143 4.143 0 0 0 4.145 4.145h12.075a4.143 4.143 0 0 0 4.145-4.145v-.53a10.478 10.478 0 0 0-.086-1.317h9.59a.034.034 0 0 0 .031-.031v-.514A7.921 7.921 0 0 0 34.053 11zm-5.827-3.685a3.249 3.249 0 1 1 3.311 3.249h-.125a3.244 3.244 0 0 1-3.187-3.249zm-13.041-1.62a4.448 4.448 0 1 1 4.706 4.441h-.514a4.455 4.455 0 0 1-4.193-4.441zM4.62 7.315a3.249 3.249 0 1 1 3.311 3.249h-.125A3.249 3.249 0 0 1 4.62 7.315zM9.777 17.75H1.262a6.657 6.657 0 0 1 6.56-5.944h.093a6.587 6.587 0 0 1 4.246 1.581 10.229 10.229 0 0 0-2.384 4.363zm18.8 3.1a2.9 2.9 0 0 1-2.9 2.9H13.6a2.9 2.9 0 0 1-2.9-2.9v-.53a8.949 8.949 0 0 1 8.671-8.936c.086.008.179.008.265.008s.179 0 .265-.008a8.949 8.949 0 0 1 8.671 8.936zm.923-3.1a10.2 10.2 0 0 0-2.361-4.332 6.619 6.619 0 0 1 4.285-1.613h.093a6.657 6.657 0 0 1 6.563 5.945z"></path></svg>